<?xml version="1.0" standalone="no"?>
<!DOCTYPE svg PUBLIC "-//W3C//DTD SVG 20010904//EN"
 "http://www.w3.org/TR/2001/REC-SVG-20010904/DTD/svg10.dtd">
<svg version="1.0" xmlns="http://www.w3.org/2000/svg"
 width="1001.000000pt" height="1001.000000pt" viewBox="0 0 1001.000000 1001.000000"
 preserveAspectRatio="xMidYMid meet">

<g transform="translate(0.000000,1001.000000) scale(0.100000,-0.100000)"
fill="#000000" stroke="none">
<path d="M0 5005 l0 -5005 5005 0 5005 0 0 5005 0 5005 -5005 0 -5005 0 0
-5005z m2701 927 c213 -56 349 -242 349 -477 0 -239 -128 -413 -345 -470 -45
-11 -114 -15 -282 -15 l-223 0 0 -280 0 -280 -160 0 -160 0 0 770 0 770 378
-1 c323 0 386 -3 443 -17z m1210 -497 c99 -280 218 -620 265 -754 47 -135 88
-250 91 -258 4 -10 -28 -13 -171 -13 l-175 0 -41 133 c-23 72 -45 143 -49 157
l-8 25 -283 0 -282 0 -55 -157 -55 -158 -169 0 c-93 0 -169 3 -169 6 0 3 114
326 254 717 140 392 262 736 272 765 l19 52 188 -2 189 -3 179 -510z m1347
500 c221 -52 354 -233 339 -460 -8 -134 -58 -228 -155 -292 l-57 -38 49 -30
c55 -33 90 -78 106 -134 5 -20 10 -155 10 -303 l0 -268 -154 0 -155 0 -3 243
c-3 274 -7 290 -83 330 -37 20 -57 22 -272 25 l-233 4 0 -301 0 -301 -155 0
-155 0 0 770 0 770 428 0 c341 0 440 -3 490 -15z m1340 0 c212 -50 343 -218
342 -439 -1 -144 -77 -279 -185 -330 l-36 -18 52 -31 c58 -35 93 -79 109 -136
5 -20 10 -155 10 -303 l0 -268 -154 0 -155 0 -3 243 c-3 274 -7 290 -83 330
-37 20 -57 22 -272 25 l-233 4 0 -301 0 -301 -155 0 -155 0 0 770 0 770 428 0
c341 0 440 -3 490 -15z m1307 -2 c4 -10 36 -101 71 -203 36 -102 78 -221 94
-265 16 -44 86 -242 155 -440 70 -198 146 -416 171 -484 24 -68 44 -125 44
-127 0 -2 -79 -4 -175 -4 l-174 0 -41 133 c-23 72 -45 143 -49 157 l-8 25
-283 0 -282 0 -55 -157 -55 -158 -170 0 c-157 0 -170 1 -165 18 2 9 105 296
227 637 122 341 242 680 268 753 l46 132 187 0 c169 0 188 -2 194 -17z"/>
<path d="M2200 5456 l0 -226 183 0 c196 0 249 9 307 50 87 62 105 235 33 320
-14 17 -44 41 -67 53 -38 20 -57 22 -248 25 l-208 3 0 -225z"/>
<path d="M3443 5311 c-50 -157 -95 -294 -98 -303 -7 -17 6 -18 190 -18 171 0
196 2 191 15 -3 8 -44 140 -92 293 -47 152 -89 282 -93 288 -3 7 -47 -117 -98
-275z"/>
<path d="M4650 5475 l0 -205 233 0 c136 0 248 5 272 11 95 26 150 107 143 208
-6 83 -34 130 -98 163 l-52 28 -249 0 -249 0 0 -205z"/>
<path d="M5990 5475 l0 -205 233 0 c241 0 282 5 338 43 89 59 106 227 30 304
-58 58 -83 63 -353 63 l-248 0 0 -205z"/>
<path d="M7698 5579 c-5 -22 -168 -533 -183 -571 -7 -17 6 -18 190 -18 171 0
196 2 191 15 -3 8 -44 140 -92 293 -96 307 -99 316 -106 281z"/>
</g>
</svg>
